<svg xmlns="http://www.w3.org/2000/svg" aria-hidden="true" style="position:absolute;width:0;height:0;overflow:hidden">
    <defs>
        <symbol id="heart" viewBox="0 0 32 32">
            <path
                d="M19.283 3.324a8.663 8.663 0 0 1 9.447 1.879 8.664 8.664 0 0 1 0 12.26L16.943 29.25a1.333 1.333 0 0 1-1.886 0L3.27 17.463A8.668 8.668 0 1 1 15.528 5.205l.471.471.47-.47a8.683 8.683 0 0 1 2.812-1.88zM22.6 5.331a5.996 5.996 0 0 0-4.244 1.758l-1.414 1.414a1.333 1.333 0 0 1-1.886 0L13.643 7.09a6.005 6.005 0 0 0-8.488 0 6 6 0 0 0 0 8.488l10.844 10.844 10.844-10.844a6.014 6.014 0 0 0 1.759-4.244 5.992 5.992 0 0 0-1.758-4.244A6.014 6.014 0 0 0 22.6 5.331z" />
        </symbol>
        <symbol id="phone" viewBox="0 0 32 32">
            <path
                d="M10.286 4c-.296 0-.555.107-.726.26a.62.62 0 0 0-.227.458v22.564c0 .141.061.31.227.458.17.153.429.26.726.26h11.429c.296 0 .555-.107.726-.26a.623.623 0 0 0 .227-.458V4.718a.618.618 0 0 0-.227-.458 1.092 1.092 0 0 0-.726-.26H10.286zM7.779 2.275a3.756 3.756 0 0 1 2.507-.942h11.429c.916 0 1.82.325 2.507.942a3.283 3.283 0 0 1 1.112 2.443v22.564c0 .947-.421 1.822-1.112 2.443a3.756 3.756 0 0 1-2.507.942H10.286c-.916 0-1.82-.325-2.507-.942a3.283 3.283 0 0 1-1.112-2.443V4.718c0-.947.421-1.822 1.112-2.443zm5.745 22.956c0-.736.597-1.333 1.333-1.333h2.286a1.333 1.333 0 0 1 0 2.666h-2.286a1.333 1.333 0 0 1-1.333-1.333z" />
        </symbol>
        <symbol id="user" viewBox="0 0 32 32">
            <path
                d="M16 2.667a6.667 6.667 0 1 0 0 13.334 6.667 6.667 0 0 0 0-13.334zm-4 6.666a4 4 0 1 1 8 0 4 4 0 0 1-8 0zM5.953 20.619a6.668 6.668 0 0 1 4.714-1.953h10.667a6.67 6.67 0 0 1 6.667 6.667V28a1.333 1.333 0 0 1-2.666 0v-2.667a4.001 4.001 0 0 0-4-4H10.668a4.001 4.001 0 0 0-4 4V28a1.333 1.333 0 0 1-2.666 0v-2.667c0-1.768.702-3.464 1.953-4.714z" />
        </symbol>
        <symbol id="cart" viewBox="0 0 32 32">
            <path
                d="M0 2.667c0-.736.597-1.333 1.333-1.333h5.333c.636 0 1.183.448 1.307 1.072l1.12 5.595h21.573a1.333 1.333 0 0 1 1.309 1.583L29.84 20.781a4.003 4.003 0 0 1-3.986 3.221H12.917a3.997 3.997 0 0 1-3.986-3.219L6.704 9.654a1.055 1.055 0 0 1-.022-.112l-1.109-5.54h-4.24A1.333 1.333 0 0 1 0 2.669zm9.628 8 1.92 9.594a1.332 1.332 0 0 0 1.334 1.073h13.012a1.335 1.335 0 0 0 1.333-1.069l1.83-9.598H9.63zm-.295 18.666a2.667 2.667 0 1 1 5.334 0 2.667 2.667 0 0 1-5.334 0zm14.667 0a2.667 2.667 0 1 1 5.334 0 2.667 2.667 0 0 1-5.334 0z" />
        </symbol>
        <symbol id="close" viewBox="0 0 32 32">
            <path d="m5.333 5.333 20 20m-20 0 20-20" style="stroke:var(--color3, #69657b)" />
            <path d="m5.333 5.333 20 20m-20 0 20-20" style="stroke:var(--color4, #000)" />
        </symbol>
        <symbol id="search" viewBox="0 0 32 32">
            <path
                d="M2.667 14.667c0 6.627 5.373 12 12 12a11.95 11.95 0 0 0 7.49-2.624l4.9 4.9a1.333 1.333 0 1 0 1.886-1.886l-4.9-4.9a11.95 11.95 0 0 0 2.624-7.49c0-6.627-5.373-12-12-12s-12 5.373-12 12zm18.722 6.474a1.305 1.305 0 0 0-.248.248 9.333 9.333 0 1 1-6.474-16.055 9.333 9.333 0 0 1 6.722 15.807z" />
        </symbol>
        <symbol id="instagram" viewBox="0 0 32 32">
            <path
                d="M16 11.834c-2.294 0-4.166 1.872-4.166 4.166s1.872 4.166 4.166 4.166c2.294 0 4.166-1.872 4.166-4.166S18.294 11.834 16 11.834zM28.494 16c0-1.725.016-3.434-.081-5.156-.097-2-.553-3.775-2.016-5.237-1.466-1.466-3.237-1.919-5.237-2.016-1.725-.097-3.434-.081-5.156-.081-1.725 0-3.434-.016-5.156.081-2 .097-3.775.553-5.237 2.016-1.466 1.466-1.919 3.237-2.016 5.237-.097 1.725-.081 3.434-.081 5.156s-.016 3.434.081 5.156c.097 2 .553 3.775 2.016 5.237 1.466 1.466 3.237 1.919 5.237 2.016 1.725.097 3.434.081 5.156.081 1.725 0 3.434.016 5.156-.081 2-.097 3.775-.553 5.237-2.016 1.466-1.466 1.919-3.237 2.016-5.237.1-1.722.081-3.431.081-5.156zM16 22.409c-3.547 0-6.409-2.863-6.409-6.409S12.454 9.591 16 9.591c3.547 0 6.409 2.862 6.409 6.409S19.546 22.409 16 22.409zm6.672-11.584c-.828 0-1.497-.669-1.497-1.497s.669-1.497 1.497-1.497a1.495 1.495 0 0 1 .573 2.88 1.482 1.482 0 0 1-.573.113z" />
        </symbol>
        <symbol id="twitter" viewBox="0 0 32 32">
            <path
                d="M6.125 6.645a1.332 1.332 0 0 1 1.255.572c1.968 2.879 4.331 4.076 6.953 4.348.128-1.121.431-2.229 1-3.205.835-1.432 2.192-2.485 4.131-2.875 2.68-.539 4.72.432 5.903 1.62l2.389-.447a1.333 1.333 0 0 1 1.404 1.971l-2.293 4.029c.209 5.815-1.407 9.873-4.852 12.669-1.827 1.483-4.443 2.324-7.313 2.584-2.893.261-6.164-.055-9.415-1.004a1.331 1.331 0 0 1-.689-2.086c.175-.231.42-.398.698-.477 1.635-.465 2.88-.867 4.004-1.569-1.599-.848-2.776-1.957-3.609-3.221-1.157-1.757-1.587-3.717-1.672-5.484s.169-3.404.439-4.584c.153-.673.332-1.348.579-1.993a1.329 1.329 0 0 1 1.091-.848h-.001z" />
        </symbol>
        <symbol id="facebook" viewBox="0 0 32 32">
            <path
                d="M24 2.4a.8.8 0 0 0-.8-.8h-4a7.634 7.634 0 0 0-8 7.2v4.32h-4a.8.8 0 0 0-.8.8v4.16a.8.8 0 0 0 .8.8h4V29.6a.8.8 0 0 0 .8.8h4.8a.8.8 0 0 0 .8-.8V18.88h4.192a.8.8 0 0 0 .785-.592l1.152-4.16a.79.79 0 0 0-.137-.693.8.8 0 0 0-.632-.315H17.6V8.8a1.6 1.6 0 0 1 1.6-1.44h4a.8.8 0 0 0 .8-.8V2.4z" />
        </symbol>
				<symbol id="burger" viewBox="0 0 32 32">
<path fill="#ffc5cf" style="fill: var(--color1, #ffc5cf)" d="M0 0h32.005v32.005h-32.005z"></path>
<path fill="#fbfbfb" style="fill: var(--color2, #fbfbfb)" d="M8.147 11.638h15.711v0.582h-15.711zM11.056 15.711h12.802v0.582h-12.802zM15.711 19.785h8.147v0.582h-8.147z"></path>
</symbol>
<symbol id="phone2" viewBox="0 0 32 32">
<path d="M22 20c-2 2-2 4-4 4s-4-2-6-4-4-4-4-6 2-2 4-4-4-8-6-8-6 6-6 6c0 4 4.109 12.109 8 16s12 8 16 8c0 0 6-4 6-6s-6-8-8-6z"></path>
</symbol>
<symbol id="menu2" viewBox="0 0 32 32">
<path d="M2 6h28v6h-28zM2 14h28v6h-28zM2 22h28v6h-28z"></path>
</symbol>
    </defs>
</svg>